<svg width="48" height="49" viewBox="0 0 48 49" fill="none" xmlns="http://www.w3.org/2000/svg">
<circle cx="23.8665" cy="24.3782" r="23.8587" fill="#5CBE3A"/>
<path d="M32.6177 20.754C32.5765 19.8191 32.4253 19.1764 32.2087 18.6195C31.9853 18.0283 31.6416 17.499 31.1913 17.059C30.7513 16.6122 30.2185 16.265 29.6342 16.0451C29.074 15.8285 28.4347 15.6773 27.4998 15.6361C26.5579 15.5914 26.2589 15.5811 23.87 15.5811C21.4812 15.5811 21.1822 15.5914 20.2438 15.6326C19.3089 15.6738 18.6662 15.8251 18.1094 16.0416C17.5181 16.265 16.9888 16.6087 16.5488 17.059C16.102 17.499 15.7549 18.0318 15.5348 18.6161C15.3183 19.1764 15.1671 19.8157 15.1258 20.7505C15.0811 21.6924 15.0708 21.9914 15.0708 24.3803C15.0708 26.7691 15.0811 27.0681 15.1224 28.0065C15.1636 28.9414 15.3149 29.5841 15.5315 30.1411C15.7549 30.7323 16.102 31.2615 16.5488 31.7015C16.9888 32.1483 17.5215 32.4956 18.1059 32.7155C18.6662 32.9321 19.3054 33.0832 20.2404 33.1245C21.1787 33.1658 21.4778 33.176 23.8667 33.176C26.2555 33.176 26.5545 33.1658 27.4929 33.1245C28.4278 33.0832 29.0705 32.9321 29.6273 32.7155C30.8098 32.2583 31.7447 31.3234 32.2019 30.1411C32.4183 29.5808 32.5696 28.9414 32.6109 28.0065C32.6521 27.0681 32.6624 26.7691 32.6624 24.3803C32.6624 21.9914 32.6589 21.6924 32.6177 20.754ZM31.0332 27.9378C30.9954 28.7971 30.851 29.2611 30.7307 29.5705C30.4351 30.337 29.8267 30.9453 29.0602 31.241C28.7508 31.3613 28.2835 31.5056 27.4275 31.5434C26.4995 31.5847 26.2212 31.5949 23.8735 31.5949C21.5259 31.5949 21.2441 31.5847 20.3194 31.5434C19.4601 31.5056 18.9961 31.3613 18.6867 31.241C18.3053 31.1 17.958 30.8766 17.6762 30.5844C17.3841 30.2991 17.1606 29.9554 17.0197 29.5739C16.8994 29.2646 16.755 28.7971 16.7173 27.9413C16.6759 27.0132 16.6657 26.7348 16.6657 24.3871C16.6657 22.0395 16.6759 21.7577 16.7173 20.8331C16.755 19.9738 16.8994 19.5098 17.0197 19.2005C17.1606 18.8189 17.3841 18.4718 17.6797 18.1898C17.9649 17.8977 18.3086 17.6743 18.6902 17.5334C18.9995 17.4131 19.4671 17.2688 20.3229 17.2309C21.2509 17.1897 21.5294 17.1794 23.8769 17.1794C26.228 17.1794 26.5063 17.1897 27.431 17.2309C28.2903 17.2688 28.7543 17.4131 29.0637 17.5334C29.4451 17.6743 29.7923 17.8977 30.0742 18.1898C30.3663 18.4751 30.5898 18.8189 30.7307 19.2005C30.851 19.5098 30.9954 19.9772 31.0332 20.8331C31.0744 21.7612 31.0848 22.0395 31.0848 24.3871C31.0848 26.7348 31.0744 27.0097 31.0332 27.9378Z" fill="white"/>
<path d="M23.8698 20.2705C21.6021 20.2705 19.7622 22.1103 19.7622 24.3781C19.7622 26.646 21.6021 28.4858 23.8698 28.4858C26.1377 28.4858 27.9775 26.646 27.9775 24.3781C27.9775 22.1103 26.1377 20.2705 23.8698 20.2705ZM23.8698 27.0426C22.3987 27.0426 21.2053 25.8494 21.2053 24.3781C21.2053 22.9068 22.3987 21.7136 23.8698 21.7136C25.3411 21.7136 26.5343 22.9068 26.5343 24.3781C26.5343 25.8494 25.3411 27.0426 23.8698 27.0426Z" fill="white"/>
<path d="M29.0987 20.1084C29.0987 20.6379 28.6693 21.0673 28.1396 21.0673C27.61 21.0673 27.1807 20.6379 27.1807 20.1084C27.1807 19.5787 27.61 19.1494 28.1396 19.1494C28.6693 19.1494 29.0987 19.5787 29.0987 20.1084Z" fill="white"/>
</svg>
